<svg xmlns="http://www.w3.org/2000/svg" viewBox="0 0 1063 638" width="1063" height="638" role="img" aria-label="TECXIA × WAHSUN 名片正面（90×54mm 模板）">
  <rect width="1063" height="638" fill="#F7F2E9"/>
  <g transform="translate(76,84)">
    <g fill="#1A1510" font-family="-apple-system, 'SF Pro Display', 'Helvetica Neue', Arial, sans-serif" font-size="44" font-weight="600">
      <text x="0" y="78" letter-spacing="7.9" textLength="240" lengthAdjust="spacing">TECXIA</text>
      <text x="911" y="78" text-anchor="end" letter-spacing="7.9" textLength="240" lengthAdjust="spacing">WAHSUN</text>
    </g>
    <g transform="translate(427.50,34.00) scale(0.56)"><g stroke="#1A1510" stroke-width="13" fill="none" stroke-linecap="butt"><path d="M9 9 L91 91"/><path d="M91 9 L9 91"/></g><g fill="#1A1510"><rect x="-20" y="-6.5" width="40" height="13" rx="2.6" transform="translate(9,9) rotate(-45)"/><rect x="-20" y="-6.5" width="40" height="13" rx="2.6" transform="translate(91,91) rotate(-45)"/><rect x="-20" y="-6.5" width="40" height="13" rx="2.6" transform="translate(91,9) rotate(45)"/><rect x="-20" y="-6.5" width="40" height="13" rx="2.6" transform="translate(9,91) rotate(45)"/></g></g>
  </g>
  <text x="76" y="396" font-family="-apple-system, 'SF Pro Display', 'Helvetica Neue', Arial, sans-serif" font-size="38" font-weight="600" fill="#1A1510">吕华顺</text>
  <text x="78" y="444" font-family="-apple-system, 'SF Pro Display', 'Helvetica Neue', Arial, sans-serif" font-size="17" fill="#4F4638">设计 × 工程</text>
  <text x="76" y="536" font-family="'SF Mono', ui-monospace, Menlo, monospace" font-size="16" fill="#1A1510">x@wahsun.org</text>
  <text x="76" y="566" font-family="'SF Mono', ui-monospace, Menlo, monospace" font-size="13" fill="#8A7F6D">tecxia.com · wahsun.org</text>
  <text x="987" y="566" text-anchor="end" font-family="'SF Mono', ui-monospace, Menlo, monospace" font-size="11" letter-spacing="2" fill="#8A7F6D">工程 × 手作 · CRAFTED END TO END</text>
</svg>
